<svg xmlns="http://www.w3.org/2000/svg" width="34.059" height="27.688" viewBox="0 0 34.059 27.688">
  <path id="twitter-icon" d="M35.465,7.405a13.992,13.992,0,0,1-4.013,1.1,7.005,7.005,0,0,0,3.072-3.867,13.95,13.95,0,0,1-4.437,1.7A6.99,6.99,0,0,0,18.18,12.708a19.844,19.844,0,0,1-14.4-7.3,7,7,0,0,0,2.163,9.33,6.971,6.971,0,0,1-3.165-.875v.09A6.99,6.99,0,0,0,8.381,20.8a7.038,7.038,0,0,1-3.156.12,6.992,6.992,0,0,0,6.528,4.851,14.022,14.022,0,0,1-8.679,2.992,14.249,14.249,0,0,1-1.668-.1,19.763,19.763,0,0,0,10.71,3.139C24.971,31.809,32,21.162,32,11.928c0-.3-.007-.6-.021-.9A14.205,14.205,0,0,0,35.462,7.41l0,0Z" transform="translate(-1.406 -4.121)" fill="#fff"/>
</svg>
